<svg width="145" height="35" viewBox="0 0 145 35" fill="none" xmlns="http://www.w3.org/2000/svg">
<path d="M32.2778 21L33.9117 25.8369H39.1994L34.9216 28.8262L36.5555 33.6631L32.2778 30.6738L28 33.6631L29.634 28.8262L25.3562 25.8369H30.6438L32.2778 21Z" fill="#1DBEB4"/>
<path d="M47.2778 21L48.9117 25.8369H54.1994L49.9216 28.8262L51.5555 33.6631L47.2778 30.6738L43 33.6631L44.634 28.8262L40.3562 25.8369H45.6438L47.2778 21Z" fill="#1DBEB4"/>
<path d="M62.2778 21L63.9117 25.8369H69.1994L64.9216 28.8262L66.5555 33.6631L62.2778 30.6738L58 33.6631L59.634 28.8262L55.3562 25.8369H60.6438L62.2778 21Z" fill="#1DBEB4"/>
<path d="M92.2778 21L93.9117 25.8369H99.1994L94.9216 28.8262L96.5555 33.6631L92.2778 30.6738L88 33.6631L89.634 28.8262L85.3562 25.8369H90.6438L92.2778 21Z" fill="white"/>
<path d="M77.2778 21L78.9117 25.8369H84.1994L79.9216 28.8262L81.5555 33.6631L77.2778 30.6738L73 33.6631L74.634 28.8262L70.3562 25.8369H75.6438L77.2778 21Z" fill="#1DBEB4"/>
<rect x="109" width="34" height="34" rx="10" fill="#545776"/>
<path d="M130.448 20.1035C130.448 20.9954 130.239 21.7474 129.823 22.3594C129.406 22.9648 128.833 23.4238 128.104 23.7363C127.381 24.0423 126.561 24.1953 125.643 24.1953C124.725 24.1953 123.902 24.0423 123.172 23.7363C122.443 23.4238 121.867 22.9648 121.444 22.3594C121.021 21.7474 120.809 20.9954 120.809 20.1035C120.809 19.5046 120.93 18.9642 121.17 18.4824C121.411 17.9941 121.747 17.5775 122.176 17.2324C122.612 16.8809 123.124 16.6139 123.71 16.4316C124.295 16.2428 124.933 16.1484 125.624 16.1484C126.548 16.1484 127.375 16.3112 128.104 16.6367C128.833 16.9622 129.406 17.4212 129.823 18.0137C130.239 18.6061 130.448 19.3027 130.448 20.1035ZM127.616 19.918C127.616 19.4818 127.531 19.1074 127.362 18.7949C127.199 18.4759 126.968 18.2318 126.668 18.0625C126.369 17.8932 126.021 17.8086 125.624 17.8086C125.226 17.8086 124.878 17.8932 124.579 18.0625C124.279 18.2318 124.045 18.4759 123.876 18.7949C123.713 19.1074 123.631 19.4818 123.631 19.918C123.631 20.3477 123.713 20.7188 123.876 21.0312C124.045 21.3438 124.279 21.5846 124.579 21.7539C124.885 21.9167 125.239 21.998 125.643 21.998C126.047 21.998 126.395 21.9167 126.688 21.7539C126.987 21.5846 127.215 21.3438 127.372 21.0312C127.534 20.7188 127.616 20.3477 127.616 19.918ZM130.145 13.5508C130.145 14.2734 129.953 14.9147 129.569 15.4746C129.185 16.028 128.651 16.4609 127.967 16.7734C127.29 17.0859 126.515 17.2422 125.643 17.2422C124.764 17.2422 123.983 17.0859 123.299 16.7734C122.616 16.4609 122.082 16.028 121.698 15.4746C121.314 14.9147 121.122 14.2734 121.122 13.5508C121.122 12.6914 121.314 11.9688 121.698 11.3828C122.088 10.7904 122.622 10.3411 123.299 10.0352C123.983 9.72917 124.758 9.57617 125.624 9.57617C126.502 9.57617 127.28 9.72917 127.958 10.0352C128.641 10.3411 129.175 10.7904 129.559 11.3828C129.95 11.9688 130.145 12.6914 130.145 13.5508ZM127.333 13.6777C127.333 13.2936 127.264 12.9616 127.127 12.6816C126.991 12.3952 126.795 12.1738 126.542 12.0176C126.294 11.8613 125.988 11.7832 125.624 11.7832C125.272 11.7832 124.969 11.8581 124.715 12.0078C124.468 12.1576 124.276 12.3757 124.139 12.6621C124.009 12.9421 123.944 13.2806 123.944 13.6777C123.944 14.0618 124.009 14.4004 124.139 14.6934C124.276 14.9798 124.471 15.2044 124.725 15.3672C124.979 15.5299 125.285 15.6113 125.643 15.6113C126.001 15.6113 126.304 15.5299 126.551 15.3672C126.805 15.2044 126.997 14.9798 127.127 14.6934C127.264 14.4004 127.333 14.0618 127.333 13.6777Z" fill="white"/>
<path d="M31.1396 6.04688H32.876L35.4326 13.3545L37.9893 6.04688H39.7256L36.1299 16H34.7354L31.1396 6.04688ZM30.2031 6.04688H31.9326L32.2471 13.1699V16H30.2031V6.04688ZM38.9326 6.04688H40.6689V16H38.6182V13.1699L38.9326 6.04688ZM46.7188 14.2295V8.60352H48.6875V16H46.835L46.7188 14.2295ZM46.9375 12.7119L47.5186 12.6982C47.5186 13.1904 47.4616 13.6484 47.3477 14.0723C47.2337 14.4915 47.0628 14.8561 46.835 15.166C46.6071 15.4714 46.32 15.7106 45.9736 15.8838C45.6273 16.0524 45.2194 16.1367 44.75 16.1367C44.39 16.1367 44.0573 16.0866 43.752 15.9863C43.4512 15.8815 43.1914 15.7197 42.9727 15.501C42.7585 15.2777 42.5898 14.9928 42.4668 14.6465C42.3483 14.2956 42.2891 13.874 42.2891 13.3818V8.60352H44.2578V13.3955C44.2578 13.6143 44.2829 13.7988 44.333 13.9492C44.3877 14.0996 44.4629 14.2227 44.5586 14.3184C44.6543 14.4141 44.766 14.4824 44.8936 14.5234C45.0257 14.5645 45.1715 14.585 45.3311 14.585C45.7367 14.585 46.0557 14.5029 46.2881 14.3389C46.5251 14.1748 46.6914 13.9515 46.7871 13.6689C46.8874 13.3818 46.9375 13.0628 46.9375 12.7119ZM52.3857 15.166L54.3477 8.60352H56.46L53.4863 17.1143C53.4225 17.3011 53.3359 17.5016 53.2266 17.7158C53.1217 17.93 52.9782 18.1328 52.7959 18.3242C52.6182 18.5202 52.3926 18.6797 52.1191 18.8027C51.8503 18.9258 51.5199 18.9873 51.1279 18.9873C50.9411 18.9873 50.7884 18.9759 50.6699 18.9531C50.5514 18.9303 50.4102 18.8984 50.2461 18.8574V17.415C50.2962 17.415 50.3486 17.415 50.4033 17.415C50.458 17.4196 50.5104 17.4219 50.5605 17.4219C50.8203 17.4219 51.0322 17.3923 51.1963 17.333C51.3604 17.2738 51.4925 17.1826 51.5928 17.0596C51.693 16.9411 51.7728 16.7861 51.832 16.5947L52.3857 15.166ZM51.5654 8.60352L53.1719 13.9629L53.4521 16.0479L52.1123 16.1914L49.4531 8.60352H51.5654ZM60.7324 5.5H62.7012V14.3047L62.5029 16H60.7324V5.5ZM67.3838 12.2266V12.3701C67.3838 12.9215 67.3245 13.4274 67.2061 13.8877C67.0921 14.348 66.9144 14.7467 66.6729 15.084C66.4313 15.4167 66.1305 15.6764 65.7705 15.8633C65.415 16.0456 64.9958 16.1367 64.5127 16.1367C64.0615 16.1367 63.6696 16.0456 63.3369 15.8633C63.0088 15.681 62.7331 15.4235 62.5098 15.0908C62.2865 14.7581 62.1064 14.3685 61.9697 13.9219C61.833 13.4753 61.7305 12.9876 61.6621 12.459V12.1445C61.7305 11.6159 61.833 11.1283 61.9697 10.6816C62.1064 10.235 62.2865 9.84538 62.5098 9.5127C62.7331 9.18001 63.0088 8.92253 63.3369 8.74023C63.665 8.55794 64.0524 8.4668 64.499 8.4668C64.9867 8.4668 65.4105 8.56022 65.7705 8.74707C66.1351 8.92936 66.4359 9.18913 66.6729 9.52637C66.9144 9.85905 67.0921 10.2555 67.2061 10.7158C67.3245 11.1715 67.3838 11.6751 67.3838 12.2266ZM65.415 12.3701V12.2266C65.415 11.9258 65.3923 11.6432 65.3467 11.3789C65.3057 11.11 65.2327 10.8753 65.1279 10.6748C65.0231 10.4697 64.8796 10.3079 64.6973 10.1895C64.5195 10.071 64.2894 10.0117 64.0068 10.0117C63.738 10.0117 63.5101 10.0573 63.3232 10.1484C63.1364 10.2396 62.9814 10.3672 62.8584 10.5312C62.7399 10.6953 62.651 10.8913 62.5918 11.1191C62.5326 11.3424 62.4961 11.5885 62.4824 11.8574V12.7529C62.4961 13.113 62.5553 13.432 62.6602 13.71C62.7695 13.9834 62.9336 14.1999 63.1523 14.3594C63.3757 14.5143 63.665 14.5918 64.0205 14.5918C64.2985 14.5918 64.5286 14.5371 64.7109 14.4277C64.8932 14.3184 65.0345 14.1634 65.1348 13.9629C65.2396 13.7624 65.3125 13.5277 65.3535 13.2588C65.3945 12.9854 65.415 12.6891 65.415 12.3701ZM72.9824 14.2295V8.60352H74.9512V16H73.0986L72.9824 14.2295ZM73.2012 12.7119L73.7822 12.6982C73.7822 13.1904 73.7253 13.6484 73.6113 14.0723C73.4974 14.4915 73.3265 14.8561 73.0986 15.166C72.8708 15.4714 72.5837 15.7106 72.2373 15.8838C71.891 16.0524 71.4831 16.1367 71.0137 16.1367C70.6536 16.1367 70.321 16.0866 70.0156 15.9863C69.7148 15.8815 69.4551 15.7197 69.2363 15.501C69.0221 15.2777 68.8535 14.9928 68.7305 14.6465C68.612 14.2956 68.5527 13.874 68.5527 13.3818V8.60352H70.5215V13.3955C70.5215 13.6143 70.5465 13.7988 70.5967 13.9492C70.6514 14.0996 70.7266 14.2227 70.8223 14.3184C70.918 14.4141 71.0296 14.4824 71.1572 14.5234C71.2894 14.5645 71.4352 14.585 71.5947 14.585C72.0003 14.585 72.3193 14.5029 72.5518 14.3389C72.7887 14.1748 72.9551 13.9515 73.0508 13.6689C73.151 13.3818 73.2012 13.0628 73.2012 12.7119ZM79.8594 16.1367C79.2852 16.1367 78.7702 16.0456 78.3145 15.8633C77.8587 15.6764 77.4714 15.4189 77.1523 15.0908C76.8379 14.7627 76.5964 14.3822 76.4277 13.9492C76.2591 13.5117 76.1748 13.0469 76.1748 12.5547V12.2812C76.1748 11.7207 76.2546 11.208 76.4141 10.7432C76.5736 10.2783 76.8014 9.875 77.0977 9.5332C77.3984 9.19141 77.763 8.92936 78.1914 8.74707C78.6198 8.56022 79.1029 8.4668 79.6406 8.4668C80.1647 8.4668 80.6296 8.55339 81.0352 8.72656C81.4408 8.89974 81.7803 9.14583 82.0537 9.46484C82.3317 9.78385 82.5413 10.1667 82.6826 10.6133C82.8239 11.0553 82.8945 11.5475 82.8945 12.0898V12.9102H77.0156V11.5977H80.96V11.4473C80.96 11.1738 80.9098 10.93 80.8096 10.7158C80.7139 10.4971 80.568 10.3239 80.3721 10.1963C80.1761 10.0687 79.9255 10.0049 79.6201 10.0049C79.3604 10.0049 79.137 10.0618 78.9502 10.1758C78.7633 10.2897 78.6107 10.4492 78.4922 10.6543C78.3783 10.8594 78.2917 11.1009 78.2324 11.3789C78.1777 11.6523 78.1504 11.9531 78.1504 12.2812V12.5547C78.1504 12.8509 78.1914 13.1243 78.2734 13.375C78.36 13.6257 78.4808 13.8421 78.6357 14.0244C78.7952 14.2067 78.9867 14.348 79.21 14.4482C79.4378 14.5485 79.6953 14.5986 79.9824 14.5986C80.3379 14.5986 80.6683 14.5303 80.9736 14.3936C81.2835 14.2523 81.5501 14.0404 81.7734 13.7578L82.7305 14.7969C82.5755 15.0202 82.3636 15.2344 82.0947 15.4395C81.8304 15.6445 81.5114 15.8132 81.1377 15.9453C80.764 16.0729 80.3379 16.1367 79.8594 16.1367ZM85.9434 10.1826V16H83.9746V8.60352H85.8203L85.9434 10.1826ZM85.6562 12.042H85.123C85.123 11.4951 85.1937 11.0029 85.335 10.5654C85.4762 10.1234 85.6745 9.7474 85.9297 9.4375C86.1849 9.12305 86.488 8.88379 86.8389 8.71973C87.1943 8.55111 87.5908 8.4668 88.0283 8.4668C88.3747 8.4668 88.6914 8.51693 88.9785 8.61719C89.2656 8.71745 89.5117 8.87695 89.7168 9.0957C89.9264 9.31445 90.0859 9.60384 90.1953 9.96387C90.3092 10.3239 90.3662 10.7637 90.3662 11.2832V16H88.3838V11.2764C88.3838 10.9482 88.3382 10.693 88.2471 10.5107C88.1559 10.3285 88.0215 10.2008 87.8438 10.1279C87.6706 10.0505 87.4564 10.0117 87.2012 10.0117C86.9368 10.0117 86.7067 10.0641 86.5107 10.1689C86.3193 10.2738 86.1598 10.4196 86.0322 10.6064C85.9092 10.7887 85.8158 11.0029 85.752 11.249C85.6882 11.4951 85.6562 11.7594 85.6562 12.042ZM91.5488 12.377V12.2334C91.5488 11.6911 91.6263 11.1921 91.7812 10.7363C91.9362 10.276 92.1618 9.87728 92.458 9.54004C92.7542 9.2028 93.1188 8.94076 93.5518 8.75391C93.9847 8.5625 94.4814 8.4668 95.042 8.4668C95.6025 8.4668 96.1016 8.5625 96.5391 8.75391C96.9766 8.94076 97.3434 9.2028 97.6396 9.54004C97.9404 9.87728 98.1683 10.276 98.3232 10.7363C98.4782 11.1921 98.5557 11.6911 98.5557 12.2334V12.377C98.5557 12.9147 98.4782 13.4137 98.3232 13.874C98.1683 14.3298 97.9404 14.7285 97.6396 15.0703C97.3434 15.4076 96.9788 15.6696 96.5459 15.8564C96.113 16.0433 95.6162 16.1367 95.0557 16.1367C94.4951 16.1367 93.9961 16.0433 93.5586 15.8564C93.1257 15.6696 92.7588 15.4076 92.458 15.0703C92.1618 14.7285 91.9362 14.3298 91.7812 13.874C91.6263 13.4137 91.5488 12.9147 91.5488 12.377ZM93.5176 12.2334V12.377C93.5176 12.6868 93.5449 12.9762 93.5996 13.2451C93.6543 13.514 93.7409 13.751 93.8594 13.9561C93.9824 14.1566 94.1419 14.3138 94.3379 14.4277C94.5339 14.5417 94.7731 14.5986 95.0557 14.5986C95.3291 14.5986 95.5638 14.5417 95.7598 14.4277C95.9557 14.3138 96.113 14.1566 96.2314 13.9561C96.3499 13.751 96.4365 13.514 96.4912 13.2451C96.5505 12.9762 96.5801 12.6868 96.5801 12.377V12.2334C96.5801 11.9326 96.5505 11.6501 96.4912 11.3857C96.4365 11.1169 96.3477 10.8799 96.2246 10.6748C96.1061 10.4652 95.9489 10.3011 95.7529 10.1826C95.557 10.0641 95.32 10.0049 95.042 10.0049C94.764 10.0049 94.527 10.0641 94.3311 10.1826C94.1396 10.3011 93.9824 10.4652 93.8594 10.6748C93.7409 10.8799 93.6543 11.1169 93.5996 11.3857C93.5449 11.6501 93.5176 11.9326 93.5176 12.2334Z" fill="#545776"/>
</svg>
