<svg width="40" height="40" viewBox="0 0 40 40" fill="none" xmlns="http://www.w3.org/2000/svg">
<path d="M35.2344 0H29.2886H10.3501H4.4043C3.23621 0 2.11596 0.468252 1.28999 1.30175C0.464023 2.13524 0 3.2657 0 4.44444V10.4444V29.7778V35.5556C0 36.7343 0.464023 37.8648 1.28999 38.6983C2.11596 39.5317 3.23621 40 4.4043 40H10.3501H29.5088H35.2344C36.4025 40 37.5227 39.5317 38.3487 38.6983C39.1747 37.8648 39.6387 36.7343 39.6387 35.5556V29.5556V10.4444V4.44444C39.6387 3.2657 39.1747 2.13524 38.3487 1.30175C37.5227 0.468252 36.4025 0 35.2344 0ZM27.7471 31.1111L19.8194 23.1111L11.8916 31.1111L8.8086 28L16.7363 20L8.8086 12L11.8916 8.88889L19.8194 16.8889L27.7471 8.88889L30.8301 12L22.9024 20L30.8301 28L27.7471 31.1111Z" fill="#545776"/>
</svg>
